<svg version="1.2" xmlns="http://www.w3.org/2000/svg" viewBox="0 0 226 226" width="226" height="226">
	<title>github2</title>
	<defs>
		<linearGradient id="g1" x2="1" gradientUnits="userSpaceOnUse" gradientTransform="matrix(192,224,-224,192,1,1)">
			<stop offset="0" stop-color="#ffffff"/>
			<stop offset="1" stop-color="#acccff"/>
		</linearGradient>
	</defs>
	<style>
		.s0 { fill: url(#g1) } 
		.s1 { fill: #1f2328 } 
	</style>
	<path fill-rule="evenodd" class="s0" d="m71 1h84c38.66 0 70 31.34 70 70v84c0 38.66-31.34 70-70 70h-84c-38.66 0-70-31.34-70-70v-84c0-38.66 31.34-70 70-70z"/>
	<path class="s1" d="m113 46.33c36.83 0 66.67 29.84 66.67 66.67-0.01 13.97-4.39 27.58-12.54 38.93-8.15 11.35-19.65 19.85-32.88 24.32-3.33 0.67-4.58-1.42-4.58-3.17 0-2.25 0.08-9.41 0.08-18.33 0-6.25-2.08-10.25-4.5-12.33 14.83-1.67 30.42-7.34 30.42-32.92 0-7.33-2.59-13.25-6.84-17.92 0.67-1.66 3-8.5-0.66-17.66 0 0-5.59-1.84-18.34 6.83-5.33-1.5-11-2.25-16.66-2.25-5.67 0-11.34 0.75-16.67 2.25-12.75-8.58-18.33-6.83-18.33-6.83-3.67 9.16-1.34 16-0.67 17.66-4.25 4.67-6.83 10.67-6.83 17.92 0 25.5 15.5 31.25 30.33 32.92-1.92 1.66-3.67 4.58-4.25 8.91-3.83 1.75-13.42 4.59-19.42-5.5-1.25-2-5-6.91-10.25-6.83-5.58 0.08-2.25 3.17 0.09 4.42 2.83 1.58 6.08 7.5 6.83 9.41 1.33 3.75 5.67 10.92 22.42 7.84 0 5.58 0.08 10.83 0.08 12.41 0 1.75-1.25 3.75-4.58 3.17-13.28-4.42-24.83-12.91-33.01-24.26-8.18-11.36-12.58-25-12.58-38.99 0-36.83 29.84-66.67 66.67-66.67z"/>
</svg>