<svg version="1.2" xmlns="http://www.w3.org/2000/svg" viewBox="0 0 226 227" width="226" height="227">
	<title>github1</title>
	<defs>
		<linearGradient id="g1" x2="1" gradientUnits="userSpaceOnUse" gradientTransform="matrix(192,224,-224,192,1,2)">
			<stop offset="0" stop-color="#ffffff"/>
			<stop offset="1" stop-color="#acccff"/>
		</linearGradient>
	</defs>
	<style>
		.s0 { fill: url(#g1) } 
		.s1 { fill: #1f2328 } 
	</style>
	<path fill-rule="evenodd" class="s0" d="m71 2h84c38.66 0 70 31.34 70 70v84c0 38.66-31.34 70-70 70h-84c-38.66 0-70-31.34-70-70v-84c0-38.66 31.34-70 70-70z"/>
	<path fill-rule="evenodd" class="s1" d="m92.92 167.18c-0.03-2.91-0.06-6.64-0.08-10.48-23.36 5.08-28.29-9.91-28.29-9.91-3.82-9.71-9.33-12.29-9.33-12.29-7.62-5.21 0.58-5.1 0.58-5.1 8.43 0.59 12.87 8.65 12.87 8.65 7.49 12.84 19.65 9.13 24.44 6.98 0.75-5.43 2.93-9.13 5.33-11.23-18.65-2.12-38.26-9.33-38.26-41.51 0-9.16 3.28-16.66 8.65-22.54-0.87-2.11-3.74-10.65 0.82-22.22 0 0 7.05-2.26 23.1 8.61 6.7-1.86 13.88-2.8 21.02-2.83 7.14 0.03 14.33 0.96 21.04 2.83 16.03-10.87 23.07-8.61 23.07-8.61 4.57 11.57 1.69 20.11 0.82 22.22 5.39 5.88 8.65 13.38 8.65 22.54 0 32.26-19.65 39.36-38.35 41.44 3.01 2.61 5.69 7.72 5.69 15.56 0 7.51-0.04 14.04-0.07 18.37-0.01 2.15-0.02 3.75-0.02 4.67 0 7.55-0.1 8.34-20.83 8.34-20.67 0-20.81-0.77-20.81-8.34 0-0.9-0.02-2.75-0.04-5.14zm-33.12-34.59c0.6 0.28 1.26 0.16 1.44-0.26 0.21-0.42-0.14-0.99-0.75-1.26-0.6-0.29-1.26-0.17-1.44 0.26-0.2 0.42 0.14 0.98 0.75 1.26zm3.86 3.04c0.53 0.59 1.31 0.76 1.71 0.39 0.42-0.38 0.31-1.15-0.24-1.75-0.55-0.58-1.31-0.76-1.72-0.38-0.41 0.37-0.3 1.16 0.25 1.74zm2.67 4.38c0.52 0.75 1.36 1.08 1.88 0.72 0.52-0.36 0.52-1.26 0.01-2.02-0.53-0.74-1.36-1.06-1.88-0.7-0.52 0.36-0.52 1.25-0.01 2zm4.51 5.87c0.72 0.69 1.7 0.82 2.16 0.32 0.49-0.51 0.27-1.47-0.46-2.15-0.72-0.69-1.71-0.83-2.18-0.32-0.46 0.51-0.25 1.47 0.48 2.15zm6.25 2.84c0.96 0.28 1.9-0.02 2.1-0.68 0.2-0.67-0.42-1.43-1.37-1.72-0.96-0.3-1.91 0.01-2.11 0.68-0.19 0.66 0.43 1.43 1.38 1.72zm7.37 1.38c1-0.01 1.81-0.58 1.78-1.28 0-0.69-0.82-1.24-1.81-1.22-1.01 0.01-1.8 0.58-1.8 1.28 0.01 0.68 0.83 1.24 1.83 1.22zm7.14 0.01c0.99-0.18 1.69-0.88 1.57-1.55-0.13-0.69-1.02-1.1-2.01-0.92-0.97 0.18-1.68 0.87-1.56 1.56 0.12 0.67 1.03 1.09 2 0.91z"/>
</svg>